<svg xmlns="http://www.w3.org/2000/svg" viewBox="0 0 512 512">
  <defs>
    <linearGradient id="g" x1="0" y1="0" x2="1" y2="1">
      <stop offset="0" stop-color="#e08a63"/>
      <stop offset="1" stop-color="#d0674a"/>
    </linearGradient>
  </defs>
  <rect width="512" height="512" rx="116" fill="#f0eee6"/>
  <!-- chat bubble -->
  <path fill="url(#g)" d="M148 108h216a56 56 0 0 1 56 56v132a56 56 0 0 1-56 56H236l-72 58a10 10 0 0 1-16-8v-50h0a56 56 0 0 1-56-56V164a56 56 0 0 1 56-56z"/>
  <!-- spark ✳ -->
  <g stroke="#fff" stroke-width="20" stroke-linecap="round">
    <line x1="256" y1="176" x2="256" y2="284"/>
    <line x1="202" y1="230" x2="310" y2="230"/>
    <line x1="218" y1="192" x2="294" y2="268"/>
    <line x1="294" y1="192" x2="218" y2="268"/>
  </g>
</svg>
